<?xml version="1.0" standalone="no"?>
<!DOCTYPE svg PUBLIC "-//W3C//DTD SVG 20010904//EN"
 "http://www.w3.org/TR/2001/REC-SVG-20010904/DTD/svg10.dtd">
<svg version="1.0" xmlns="http://www.w3.org/2000/svg"
 width="1024.000000pt" height="1024.000000pt" viewBox="0 0 1024.000000 1024.000000"
 preserveAspectRatio="xMidYMid meet">
<metadata>
Created by potrace 1.14, written by Peter Selinger 2001-2017
</metadata>
<g transform="translate(0.000000,1024.000000) scale(0.100000,-0.100000)"
fill="#000000" stroke="none">
<path d="M5789 9853 c-2 -5 -18 -19 -36 -31 -38 -27 -97 -145 -198 -392 -62
-151 -141 -371 -161 -445 -4 -16 -8 -32 -9 -35 -4 -16 -16 -69 -20 -90 -3 -14
-7 -36 -10 -50 -6 -33 -12 -73 -20 -140 -3 -30 -8 -71 -10 -90 -3 -19 -7 -64
-10 -100 -3 -36 -8 -85 -10 -110 -5 -55 -17 -192 -20 -241 -3 -49 -12 -60 -43
-55 -25 5 -76 9 -216 21 -33 3 -61 7 -64 9 -4 5 5 34 52 161 14 39 26 70 25
70 0 0 2 17 6 38 21 109 9 239 -26 307 -23 43 -82 100 -127 124 -95 49 -324
78 -442 56 -25 -4 -58 -11 -75 -13 -119 -21 -297 -99 -413 -180 -123 -85 -228
-203 -293 -327 -44 -84 -27 -290 35 -425 46 -101 82 -110 156 -37 56 55 106
75 190 73 87 -2 243 -27 278 -45 40 -20 82 -60 82 -76 0 -7 -15 -38 -34 -69
-57 -94 -105 -197 -136 -289 -49 -147 -57 -226 -57 -527 -1 -132 2 -255 4
-273 8 -51 70 -92 137 -92 98 0 108 15 141 200 38 207 102 352 191 429 40 36
116 76 183 98 65 21 223 25 296 8 71 -16 125 -33 109 -34 -7 -1 -12 -33 -14
-88 -1 -49 -3 -108 -5 -133 -4 -64 -16 -311 -20 -403 -1 -43 -5 -81 -8 -84 -4
-3 -89 -29 -191 -58 -441 -127 -572 -187 -697 -317 -105 -109 -189 -309 -217
-518 -8 -59 -8 -269 1 -345 4 -33 9 -85 13 -115 7 -69 41 -231 60 -289 41
-123 118 -246 505 -806 54 -78 320 -453 341 -480 4 -5 19 -24 33 -41 13 -17
23 -33 21 -35 -2 -2 -7 -62 -10 -134 -4 -71 -9 -155 -11 -185 -4 -60 -13 -198
-20 -325 -5 -79 -10 -151 -21 -315 -3 -47 -7 -111 -9 -144 -2 -32 -6 -61 -9
-63 -8 -9 -169 48 -249 88 -205 102 -307 215 -352 390 -26 98 -23 257 6 387 5
25 6 48 2 52 -4 4 -35 15 -68 25 -33 10 -70 21 -82 26 -19 7 -24 1 -48 -64
-143 -379 -173 -532 -151 -766 25 -269 174 -481 425 -601 72 -35 185 -71 336
-110 66 -17 128 -33 138 -36 16 -5 17 -15 12 -97 -8 -124 -12 -172 -19 -237
-3 -30 -8 -84 -11 -120 -5 -63 -9 -106 -20 -220 -3 -30 -7 -80 -10 -110 -7
-78 -15 -177 -20 -230 -22 -241 -25 -292 -13 -335 12 -44 42 -65 97 -65 54 0
84 24 95 75 4 17 8 39 11 50 2 11 11 46 20 79 18 68 61 281 70 346 3 25 8 52
10 60 2 8 6 31 9 50 3 19 8 46 10 60 7 35 44 248 51 288 12 73 16 101 30 177
8 44 18 98 21 120 3 22 8 47 9 55 2 8 4 23 4 33 1 9 4 16 9 15 4 -1 32 1 62 5
30 5 71 10 90 12 19 2 55 7 80 10 25 4 60 8 78 11 17 2 49 6 70 9 145 21 182
26 217 31 82 10 100 16 133 41 37 28 88 93 98 126 4 12 17 30 30 40 13 10 29
35 35 57 6 21 22 43 34 50 39 21 144 218 195 368 53 157 73 271 74 437 1 185
-5 242 -50 423 -59 240 -134 440 -260 694 -134 269 -368 618 -569 848 l-57 65
7 190 c4 105 8 213 10 240 1 28 6 118 10 200 4 83 8 173 10 200 1 28 3 64 4
81 1 24 7 33 24 38 18 5 281 65 362 82 31 7 117 25 145 30 204 40 323 155 345
334 17 140 21 183 19 255 -1 104 -13 232 -25 262 -5 12 -7 23 -4 23 11 0 -40
144 -79 224 -58 119 -142 230 -279 370 -126 128 -218 208 -329 285 -72 51 -75
54 -72 89 2 20 6 89 9 152 3 63 8 144 10 180 2 36 7 117 10 180 3 63 8 140 10
170 3 30 7 105 10 165 3 61 8 146 10 190 3 44 7 121 10 170 6 94 13 202 20
295 2 30 7 111 10 180 4 69 9 128 11 131 4 7 -21 118 -29 125 -3 3 -7 1 -8 -3z
m-62 -2877 c100 -110 135 -195 98 -236 -17 -19 -89 -50 -147 -64 l-26 -6 4 88
c3 48 7 112 9 142 1 30 4 75 4 100 2 41 3 43 16 26 8 -10 27 -32 42 -50z
m-572 -1248 c-3 -68 -7 -170 -10 -228 -3 -58 -7 -161 -10 -230 -3 -69 -8 -177
-10 -240 -5 -113 -7 -162 -21 -450 -4 -80 -6 -153 -6 -163 2 -40 -43 12 -153
174 -61 90 -180 267 -265 393 l-155 228 0 67 c0 123 94 292 218 392 83 67 246
142 372 172 47 11 46 14 40 -115z m451 -1761 c170 -234 285 -429 362 -617 60
-145 107 -297 118 -385 3 -22 7 -47 10 -55 3 -8 7 -55 10 -105 l5 -90 -69 136
c-37 74 -78 151 -89 170 -11 19 -33 57 -48 84 -44 81 -386 668 -405 695 -9 14
-16 30 -14 35 1 6 8 63 14 128 7 64 15 117 19 116 3 0 43 -51 87 -112z m-63
-1094 c58 -87 148 -232 201 -323 l96 -165 -38 -6 c-20 -4 -76 -9 -123 -13 -47
-4 -95 -8 -105 -10 -51 -10 -206 -17 -201 -10 2 5 8 52 11 104 8 109 14 183
21 255 2 28 10 112 16 188 7 75 13 137 14 137 1 0 50 -71 108 -157z"/>
<path d="M6158 5711 c-110 -55 -307 -229 -333 -294 -25 -60 -20 -125 15 -217
51 -132 169 -269 267 -311 66 -28 109 -27 162 7 62 40 253 188 290 226 74 73
81 156 24 257 -39 67 -126 204 -138 217 -5 6 -23 27 -40 48 -65 81 -164 108
-247 67z"/>
</g>
</svg>
