<svg xmlns="http://www.w3.org/2000/svg" width="262.922" height="43.052" viewBox="0 0 759.44 124.36"><defs><style>.cls-1{fill:none;}.cls-2{fill:#2d368e;}.cls-3{fill:#8b3e1e;}.cls-4{fill:#fbb615;}.cls-5{fill:#e80a89;}</style></defs><title>Asset 1</title><g id="Layer_2" data-name="Layer 2"><g id="Layer_1-2" data-name="Layer 1"><g id="Group_147" data-name="Group 147"><g id="Group_145" data-name="Group 145"><path id="Path_1391" data-name="Path 1391" class="cls-1" d="M124.16,40.89a10.23,10.23,0,0,0-10.23,10.23V75.8a10.21,10.21,0,0,0,20.42,0V51.12A10.21,10.21,0,0,0,124.16,40.89Z"/><path id="Path_1392" data-name="Path 1392" class="cls-1" d="M269.45,51.12a10.22,10.22,0,1,0-20.44,0h0v11h20.44Z"/><path id="Path_1393" data-name="Path 1393" class="cls-2" d="M148.36,75.8V51.12a24.22,24.22,0,0,0-48.44,0V75.8a24.22,24.22,0,0,0,48.44,0Zm-14,0a10.21,10.21,0,0,1-20.41,0V51.12a10.21,10.21,0,1,1,20.41,0h0Z"/><path id="Path_1394" data-name="Path 1394" class="cls-2" d="M58.9,26.91a24.22,24.22,0,0,0-17.36,7.34A24.19,24.19,0,0,0,0,51.12V93a7,7,0,1,0,14,0V51.12a10.22,10.22,0,1,1,20.43,0V93a7,7,0,0,0,7,7s.09,0,.12,0,.09,0,.14,0a7,7,0,0,0,7-7V51.12a10.22,10.22,0,1,1,20.43,0V93a7,7,0,0,0,14,0h0V51.12A24.22,24.22,0,0,0,58.9,26.91Z"/><path id="Path_1395" data-name="Path 1395" class="cls-2" d="M276.44,100a7,7,0,0,0,7-7V51.12a24.22,24.22,0,1,0-48.44,0V93a7,7,0,0,0,14,0V76.1h20.44V93A7,7,0,0,0,276.44,100ZM249,62.08v-11a10.22,10.22,0,1,1,20.44,0v11Z"/><path id="Path_1396" data-name="Path 1396" class="cls-2" d="M172.59,100a7,7,0,0,0,7-7V69.11A36.86,36.86,0,0,0,216,100.17a7,7,0,1,0,0-14h0a22.64,22.64,0,1,1-.51-45.27H216a7,7,0,0,0,.29-14H216a36.85,36.85,0,0,0-36.45,31v-24a7,7,0,0,0-14,0V93a7,7,0,0,0,7,7Z"/></g><g id="Group_146" data-name="Group 146"><path id="Path_1397" data-name="Path 1397" class="cls-1" d="M735.22,57.77A10.24,10.24,0,0,0,725,68V97.45a10.22,10.22,0,1,0,20.44,0V68A10.23,10.23,0,0,0,735.22,57.77Z"/><path id="Path_1398" data-name="Path 1398" class="cls-1" d="M662.22,57.52A10.24,10.24,0,0,0,652,67.75V86.36h20.44V67.75a10.19,10.19,0,0,0-10.18-10.23Z"/><path id="Path_1399" data-name="Path 1399" class="cls-2" d="M735.24,43.76A24.24,24.24,0,0,0,711,68V86.36H686.42V67.75a24.21,24.21,0,1,0-48.42,0V96.28s-.17,4.09,3.55,4.09h30.39a9.32,9.32,0,0,1-9.73,10,10.23,10.23,0,0,1-6.68-2.47,7,7,0,1,0-9.16,10.56,24.23,24.23,0,0,0,15.84,5.89c12.27,0,22.79-6.76,24-24h25v.24a24.19,24.19,0,0,0,48.18-3.16V68A24.27,24.27,0,0,0,735.24,43.76Zm-62.81,42.6H652V67.75a10.23,10.23,0,0,1,20.45-.33V86.36Zm73,11.09a10.22,10.22,0,0,1-20.44,0V68a10.22,10.22,0,0,1,20.44,0Z"/><path id="Path_1400" data-name="Path 1400" class="cls-2" d="M601.77,64.61H539.82V61.87a13.9,13.9,0,0,1,4.95-9.6c4.07-3.76,12.13-8,27.36-6.93a6.91,6.91,0,0,0,7.48-6.29c0-.06,0-.12,0-.17a7,7,0,0,0-6.48-7.5c-20.27-1.38-31.8,5-37.91,10.66a28.11,28.11,0,0,0-9.43,19.84V76.11a2.3,2.3,0,0,0,2.07,2.52,2.16,2.16,0,0,0,.44,0h73.46a10.43,10.43,0,0,1,7.05,2.82,8.62,8.62,0,0,1,1.89,2.94c.36,1,.21,2-1.26,2H492.14a1.75,1.75,0,0,1-1.77-1.73V32.92a7,7,0,0,0-14,0V84.59a15.83,15.83,0,0,0,15.78,15.77H623.59s2.39.09,2.39-3.15V88.83A24.26,24.26,0,0,0,601.77,64.61Z"/></g></g><path id="Path_1401" data-name="Path 1401" class="cls-3" d="M418.43,50.05a8.66,8.66,0,0,1-8.74-6.56,7.07,7.07,0,0,1-.45-2.49c.05-1.93.5-3.88-2.08-2.33-1.46.88-2.24,2.6-3.46,3.71-2.48,2.29-5,4.52-7.47,6.86l-7.8,7.53,7.7,14.62c3.71-3.43,7.41-6.87,11.16-10.24a54,54,0,0,1,5.24-4.42c1.77-1.25,1.9,0,3.83-.47,1.56-.37,1.93-2.18,2.45-3.38.43-1,1.06-2,1.52-3A10.91,10.91,0,0,1,418.43,50.05Z"/><path id="Path_1402" data-name="Path 1402" class="cls-3" d="M360.47,97a7.52,7.52,0,0,0,9.72-1.49c2.44-2.27,4.88-4.5,7.34-6.75l5.39-5-12.93-9-7.07,6.83c-3.22,3.1-6.93,6.06-7.22,9.15C355.51,92.76,356.75,94.8,360.47,97Z"/><path id="Path_1403" data-name="Path 1403" class="cls-4" d="M415.6,43.27a6.29,6.29,0,0,1-.92-4.79,17.9,17.9,0,0,1,2.26-5.3,9.36,9.36,0,0,0,.37,3.72c.46,1.13,1.74,2,2,3.14.39,1.6-1.11,2.84-1.07,4.39,0,1.19,4.26-2.06,4.51-2.4a7.88,7.88,0,0,0,1.28-5.24,30.72,30.72,0,0,0-3.82-10.57c-1.39-2.86-1.65-6-3.05-8.83A26.78,26.78,0,0,1,415.7,26C413.69,31.82,406,40.48,415.6,43.27Z"/><g id="Group_149" data-name="Group 149"><path id="Path_1407" data-name="Path 1407" class="cls-2" d="M370.09,24.8l.32.09L379.71,8l19.2,34.78,2.39.28,3.5-3.15-3.32-.44L379.71,0,366.35,24.26l.67,0A13.31,13.31,0,0,1,370.09,24.8Z"/><path id="Path_1408" data-name="Path 1408" class="cls-2" d="M450.8,45.88l-26.87-3.5-.11.29a7.08,7.08,0,0,1-.75,1.38,11.8,11.8,0,0,1-1,.84l-.19.14,0,.23v.13l0,.34,19.78,2.56-31,27,7.31,38.2-38.33-18-38.35,18,7.33-38.2-31-27L336.62,46l.1-.21a8.49,8.49,0,0,1,.39-.8l.11-.22-.13-.2A8.48,8.48,0,0,1,336,42l-.09-.36-27.29,4.22L344.32,77l-8.38,43.6L379.68,100l43.75,20.57L415.05,77Z"/></g><path id="Path_1409" data-name="Path 1409" class="cls-4" d="M356,51.67a14.38,14.38,0,0,1-2.64-3,12.71,12.71,0,0,1-1.49.21c-.34,0-.67,0-1,0a13.89,13.89,0,0,1-9.19-3.35c-.3-.26-.58-.54-.86-.81a13.66,13.66,0,0,0-1.14,6.59,13.36,13.36,0,0,0,4.64,9.18,12.6,12.6,0,0,0,9.24,3c5.12-.42,12.13-6.55,11-8.51A14.09,14.09,0,0,1,356,51.67Z"/><path id="Path_1410" data-name="Path 1410" class="cls-3" d="M351.23,36.46c.06-.23.14-.45.21-.68a14.63,14.63,0,0,1,9.38-9.59,13.87,13.87,0,0,0-1.93-2.05,12.61,12.61,0,0,0-8.34-3c-.3,0-.6,0-.91,0a13.16,13.16,0,0,0-11.81,14.29,13.4,13.4,0,0,0,2.66,7.08l.44.54q.22.27.45.51c.35.37.71.72,1.08,1a12.64,12.64,0,0,0,9.25,3c.29,0,.57-.08.86-.12a15,15,0,0,1-1.49-10.36C351.13,36.91,351.17,36.68,351.23,36.46Z"/><path id="Path_1411" data-name="Path 1411" class="cls-5" d="M378.16,39.22a13.52,13.52,0,0,0-4.7-9.31A12.82,12.82,0,0,0,365,26.82c-.31,0-.62,0-.92,0a11.16,11.16,0,0,0-1.16.16,6.4,6.4,0,0,0-.66.14l-.67.16a13.29,13.29,0,0,0-8.78,8.44l-.21.65c-.06.21-.12.43-.17.65a13.72,13.72,0,0,0,1.48,10.16c.11.2.22.4.35.59a6.58,6.58,0,0,0,.4.57,13.28,13.28,0,0,0,2.13,2.3,12.79,12.79,0,0,0,8.11,3.09l.69,0h.58l.1,0A13.35,13.35,0,0,0,378.16,39.22Z"/><g id="Group_152" data-name="Group 152"><path id="Path_1412" data-name="Path 1412" class="cls-3" d="M386.64,58.07l-.29,2.7h1.74Z"/><path id="Path_1413" data-name="Path 1413" class="cls-3" d="M385.26,57.05l-3.77,0-.4,3.72h3.75Z"/><path id="Path_1414" data-name="Path 1414" class="cls-3" d="M380,57h-1.92l-2,1.82-.21,1.91h3.76Z"/><path id="Path_1415" data-name="Path 1415" class="cls-3" d="M378.3,72.72h-3.76l-.27,2.49,1.79,1.24h1.84Z"/><path id="Path_1416" data-name="Path 1416" class="cls-3" d="M384.69,62.27l-3.76,0-.4,3.74h3.76Z"/><path id="Path_1417" data-name="Path 1417" class="cls-3" d="M389.77,63.9l-.88-1.61h-2.7l-.4,3.74h3.75Z"/><path id="Path_1418" data-name="Path 1418" class="cls-3" d="M374.37,60.33l-.47.42h.43Z"/><path id="Path_1419" data-name="Path 1419" class="cls-3" d="M378.86,67.48h-3.75l-.41,3.73h3.76Z"/><path id="Path_1420" data-name="Path 1420" class="cls-3" d="M379.43,62.26l-3.76,0L375.26,66,379,66Z"/><path id="Path_1421" data-name="Path 1421" class="cls-3" d="M405.84,93.71H403.9l-.2,1.85,1.92,1.31a2.75,2.75,0,0,0,1.14.58h.29a.41.41,0,0,0,.2-.14l.08-.62a3.6,3.6,0,0,0-.42-1Z"/><path id="Path_1422" data-name="Path 1422" class="cls-3" d="M370,66h3.75l.4-3.73h-1.92l-2,1.81Z"/><path id="Path_1423" data-name="Path 1423" class="cls-3" d="M368.55,65.54l-.47.42h.42Z"/><path id="Path_1424" data-name="Path 1424" class="cls-3" d="M368,70.88l.37-3.42h-1.92l-1.48,1.32Z"/><path id="Path_1425" data-name="Path 1425" class="cls-3" d="M379.23,78l-.07.65,3.5,2.42L383,78Z"/><path id="Path_1426" data-name="Path 1426" class="cls-3" d="M373.6,67.47l-3.76,0-.39,3.75h3.75Z"/><path id="Path_1427" data-name="Path 1427" class="cls-3" d="M370.62,72.68l2.25,1.56L373,72.7Z"/><path id="Path_1428" data-name="Path 1428" class="cls-3" d="M380.2,55.11l-.47.42h.42Z"/><path id="Path_1429" data-name="Path 1429" class="cls-3" d="M383.46,52.18l-1.6,1.44-.22,1.91h3.63Z"/><path id="Path_1430" data-name="Path 1430" class="cls-3" d="M393.57,78h-3.81l-.4,3.75h3.81Z"/><path id="Path_1431" data-name="Path 1431" class="cls-3" d="M398.28,83.24l-3.76,0L394.11,87h3.76Z"/><path id="Path_1432" data-name="Path 1432" class="cls-3" d="M400.19,83.24h-.43l-.4,3.73h2.84Z"/><path id="Path_1433" data-name="Path 1433" class="cls-3" d="M394,88.45l-.05.32,3.49,2.41.31-2.73Z"/><path id="Path_1434" data-name="Path 1434" class="cls-3" d="M383.55,72.73H379.8l-.4,3.73h3.76Z"/><path id="Path_1435" data-name="Path 1435" class="cls-3" d="M403,88.47H399.2l-.4,3.7.05,0,3.71,0Z"/><path id="Path_1436" data-name="Path 1436" class="cls-3" d="M404.1,89.83l-.31,2.83h1.85Z"/><path id="Path_1437" data-name="Path 1437" class="cls-3" d="M393,83.21h-3.82L389,85.36l2.28,1.58h1.35Z"/><path id="Path_1438" data-name="Path 1438" class="cls-3" d="M400.5,93.56l2,1.42.15-1.41Z"/><path id="Path_1439" data-name="Path 1439" class="cls-3" d="M398.58,80.24,397.36,78h-2.29l-.39,3.75,3.75,0Z"/><path id="Path_1440" data-name="Path 1440" class="cls-3" d="M389.38,67.5h-3.77l-.4,3.73H389Z"/><path id="Path_1441" data-name="Path 1441" class="cls-3" d="M391.72,67.51h-.84l-.4,3.74h3.26Z"/><path id="Path_1442" data-name="Path 1442" class="cls-3" d="M384.12,67.5l-3.76,0L380,71.21l3.75,0Z"/><path id="Path_1443" data-name="Path 1443" class="cls-3" d="M395.46,74.45l-.21,2h1.32Z"/><path id="Path_1444" data-name="Path 1444" class="cls-3" d="M385.83,83.2l1.73,1.19.13-1.19Z"/><path id="Path_1445" data-name="Path 1445" class="cls-3" d="M394.13,72.76h-3.81l-.41,3.73h3.82Z"/><path id="Path_1446" data-name="Path 1446" class="cls-3" d="M388.27,78h-3.76l-.4,3.74,3.75,0Z"/><path id="Path_1447" data-name="Path 1447" class="cls-3" d="M388.82,72.74h-3.77l-.39,3.72h3.75Z"/><path id="Path_1448" data-name="Path 1448" class="cls-3" d="M380.11,49.86,362.88,65.29a1.44,1.44,0,0,0,1.5,2.47,1.59,1.59,0,0,0,.39-.34L382,52a1.6,1.6,0,0,0,.35-2.21,1.62,1.62,0,0,0-2.25.09"/></g></g></g></svg>
