<svg xmlns="http://www.w3.org/2000/svg" width="364.74" height="106.36" viewBox="0 0 364.74 106.36">
  <defs>
    <style>
      .cls-1 {
        fill: #096dad;
      }

      .cls-2 {
        fill: #0aad9a;
      }
    </style>
  </defs>
  <g id="Layer_2" data-name="Layer 2">
    <g id="Layer_1-2" data-name="Layer 1">
      <g>
        <path class="cls-1" d="M84.67,106.36c-.32,0-.63,0-1,0a8.41,8.41,0,0,1-7.37-6.54l-15-67.53L52.65,62.62A14.39,14.39,0,0,1,38.88,73H4.49a4.49,4.49,0,1,1,0-9H38.88A5.36,5.36,0,0,0,44,60.15L53.2,27.91a8.49,8.49,0,0,1,16.44.42L84.78,96.27,95,72.45A14.38,14.38,0,0,1,108,64.26h32.29a4.49,4.49,0,0,1,0,9H108a5.33,5.33,0,0,0-4.78,3L92.3,101.5A8.38,8.38,0,0,1,84.67,106.36Z"/>
        <path class="cls-2" d="M101,55.65a14.79,14.79,0,1,1,5-.9A14.71,14.71,0,0,1,101,55.65Zm0-22a7.06,7.06,0,0,0-2.46.44,7.23,7.23,0,0,0-4.32,9.26,7.24,7.24,0,0,0,9.26,4.33,7.23,7.23,0,0,0,4.32-9.27h0A7.23,7.23,0,0,0,101,33.69Z"/>
        <path class="cls-2" d="M90.05,21.68a10.84,10.84,0,0,1-3.7-21,10.84,10.84,0,0,1,13.89,6.48h0a10.72,10.72,0,0,1-.37,8.28A10.69,10.69,0,0,1,93.76,21,10.83,10.83,0,0,1,90.05,21.68ZM90.06,6a4.9,4.9,0,0,0-4.4,2.8,4.83,4.83,0,0,0-.16,3.71A4.77,4.77,0,0,0,88,15.23a4.85,4.85,0,0,0,6.61-6.05h0A4.88,4.88,0,0,0,90.06,6Z"/>
        <path class="cls-2" d="M116.28,23.35a7.33,7.33,0,1,1,6.88-9.84h0a7.33,7.33,0,0,1-6.88,9.84Zm0-10.92A3.6,3.6,0,0,0,113,14.5a3.55,3.55,0,0,0-.12,2.75,3.59,3.59,0,1,0,6.74-2.46h0a3.59,3.59,0,0,0-3.37-2.36Z"/>
      </g>
      <g>
        <g>
          <path class="cls-2" d="M168,42.52h15.47a2.8,2.8,0,0,1,2,.77,2.56,2.56,0,0,1,.81,2,2.38,2.38,0,0,1-.81,1.87,2.9,2.9,0,0,1-2,.72H170.49l.42-.79v9l-.37-.37h10.81a2.81,2.81,0,0,1,2,.76,2.6,2.6,0,0,1,.8,2,2.4,2.4,0,0,1-.8,1.87,2.92,2.92,0,0,1-2,.72H170.68l.23-.37V70l-.37-.42h12.88a2.71,2.71,0,0,1,2,.81,2.56,2.56,0,0,1,.81,1.87,2.44,2.44,0,0,1-.81,1.89,2.87,2.87,0,0,1-2,.74H168A2.75,2.75,0,0,1,165.14,72V45.34a2.76,2.76,0,0,1,.8-2A2.73,2.73,0,0,1,168,42.52Z"/>
          <path class="cls-2" d="M211.32,49.68a2.65,2.65,0,0,1,2,.79,2.72,2.72,0,0,1,.79,2V72a2.74,2.74,0,0,1-.79,2,2.84,2.84,0,0,1-4,0,2.77,2.77,0,0,1-.78-2V69.77l1,.42a2.58,2.58,0,0,1-.64,1.45,9.23,9.23,0,0,1-1.76,1.69,11.13,11.13,0,0,1-2.61,1.41,9.06,9.06,0,0,1-3.25.57,10.52,10.52,0,0,1-5.78-1.64,11.53,11.53,0,0,1-4.08-4.52,15.49,15.49,0,0,1,0-13.3,11.62,11.62,0,0,1,4-4.53,10.18,10.18,0,0,1,5.63-1.64,10.71,10.71,0,0,1,3.65.6,10.85,10.85,0,0,1,2.89,1.53,8.82,8.82,0,0,1,1.89,1.87,2.94,2.94,0,0,1,.67,1.59l-1.66.6V52.5a2.78,2.78,0,0,1,.78-2A2.65,2.65,0,0,1,211.32,49.68ZM202,70.23a6.29,6.29,0,0,0,3.55-1,6.85,6.85,0,0,0,2.38-2.77,9.5,9.5,0,0,0,0-7.9,6.85,6.85,0,0,0-2.38-2.77,6.22,6.22,0,0,0-3.55-1,6.14,6.14,0,0,0-3.51,1,6.85,6.85,0,0,0-2.38,2.77,9.6,9.6,0,0,0,0,7.9,6.85,6.85,0,0,0,2.38,2.77A6.21,6.21,0,0,0,202,70.23Z"/>
          <path class="cls-2" d="M235.84,69.77a2.56,2.56,0,0,1,1.85.72,2.41,2.41,0,0,1,.73,1.82,2.44,2.44,0,0,1-.73,1.8,2.53,2.53,0,0,1-1.85.74H221a2.3,2.3,0,0,1-1.85-.83,2.41,2.41,0,0,1-.65-1.66,6.92,6.92,0,0,1,.19-1.23,3.44,3.44,0,0,1,.69-1.22L230.85,55l-.09.65h-9.38a2.51,2.51,0,0,1-1.84-.74,2.48,2.48,0,0,1-.74-1.85,2.36,2.36,0,0,1,.74-1.78,2.53,2.53,0,0,1,1.84-.71h14.23a2.38,2.38,0,0,1,1.8.78,2.52,2.52,0,0,1,.65,2,7.78,7.78,0,0,1-.17.92,3,3,0,0,1-.62,1.11L226,70.05v-.28Z"/>
          <path class="cls-2" d="M260.78,50.14a2.63,2.63,0,0,1,2,.81,2.79,2.79,0,0,1,.79,2V72.59a12.46,12.46,0,0,1-1.6,6.76A9,9,0,0,1,257.68,83a15.5,15.5,0,0,1-6,1.11,23.47,23.47,0,0,1-3.14-.23,10.77,10.77,0,0,1-2.73-.7,3.92,3.92,0,0,1-1.91-1.5,2.22,2.22,0,0,1-.21-1.91A2.9,2.9,0,0,1,245,77.92a2.3,2.3,0,0,1,1.94-.11c.49.15,1.14.39,1.94.71a7.4,7.4,0,0,0,2.77.49,9.47,9.47,0,0,0,3.53-.58,4.12,4.12,0,0,0,2.13-1.94,8.18,8.18,0,0,0,.71-3.72V69.68l1,1.11a8.12,8.12,0,0,1-2,2.51,7.78,7.78,0,0,1-2.8,1.5,12.23,12.23,0,0,1-3.69.51,8,8,0,0,1-4.27-1.13A7.58,7.58,0,0,1,243.46,71a10,10,0,0,1-1-4.59V53a2.75,2.75,0,0,1,.79-2,2.63,2.63,0,0,1,2-.81,2.67,2.67,0,0,1,2,.81,2.78,2.78,0,0,1,.78,2V64.78c0,2,.44,3.41,1.32,4.23A5.17,5.17,0,0,0,253,70.23a5.57,5.57,0,0,0,2.73-.62,4.19,4.19,0,0,0,1.7-1.85,6.71,6.71,0,0,0,.6-3V53a2.79,2.79,0,0,1,.79-2A2.64,2.64,0,0,1,260.78,50.14Z"/>
        </g>
        <g>
          <path class="cls-1" d="M281.3,49.68a17,17,0,0,1,4.59.56,7.46,7.46,0,0,1,3.05,1.54A3.15,3.15,0,0,1,290,54.16a3,3,0,0,1-.56,1.73,1.83,1.83,0,0,1-1.61.81,3.12,3.12,0,0,1-1.23-.21,2.84,2.84,0,0,1-.85-.53,5.63,5.63,0,0,0-.88-.6,4.42,4.42,0,0,0-1.41-.44,10.3,10.3,0,0,0-1.41-.16,7.39,7.39,0,0,0-4,1,6.82,6.82,0,0,0-2.52,2.75,8.75,8.75,0,0,0-.88,4,8.34,8.34,0,0,0,.91,3.95,7,7,0,0,0,2.49,2.75,6.72,6.72,0,0,0,3.67,1,11.54,11.54,0,0,0,2-.14,5,5,0,0,0,1.38-.41,8.71,8.71,0,0,0,1.16-.79,2.38,2.38,0,0,1,1.52-.41,2.29,2.29,0,0,1,1.85.76,2.79,2.79,0,0,1,.64,1.87,2.64,2.64,0,0,1-1.29,2.1,10.48,10.48,0,0,1-3.39,1.53,17.39,17.39,0,0,1-4.55.57,11.66,11.66,0,0,1-6.33-1.68,11.28,11.28,0,0,1-4.13-4.6,14.36,14.36,0,0,1-1.46-6.51,13.92,13.92,0,0,1,1.55-6.67A11.48,11.48,0,0,1,275,51.32,12.14,12.14,0,0,1,281.3,49.68Z"/>
          <path class="cls-1" d="M314.55,49.68a2.65,2.65,0,0,1,2,.79,2.72,2.72,0,0,1,.79,2V72a2.74,2.74,0,0,1-.79,2,2.84,2.84,0,0,1-4,0,2.77,2.77,0,0,1-.78-2V69.77l1,.42a2.58,2.58,0,0,1-.64,1.45,9.23,9.23,0,0,1-1.76,1.69,11.13,11.13,0,0,1-2.61,1.41,9.06,9.06,0,0,1-3.25.57,10.52,10.52,0,0,1-5.78-1.64,11.53,11.53,0,0,1-4.08-4.52,15.49,15.49,0,0,1,0-13.3,11.62,11.62,0,0,1,4-4.53,10.18,10.18,0,0,1,5.63-1.64,10.71,10.71,0,0,1,3.65.6,10.85,10.85,0,0,1,2.89,1.53,8.82,8.82,0,0,1,1.89,1.87,2.94,2.94,0,0,1,.67,1.59l-1.66.6V52.5a2.78,2.78,0,0,1,.78-2A2.65,2.65,0,0,1,314.55,49.68Zm-9.33,20.55a6.35,6.35,0,0,0,3.56-1,6.91,6.91,0,0,0,2.37-2.77,9.5,9.5,0,0,0,0-7.9,6.91,6.91,0,0,0-2.37-2.77,6.27,6.27,0,0,0-3.56-1,6.18,6.18,0,0,0-3.51,1,6.85,6.85,0,0,0-2.38,2.77,9.6,9.6,0,0,0,0,7.9,6.85,6.85,0,0,0,2.38,2.77A6.25,6.25,0,0,0,305.22,70.23Z"/>
          <path class="cls-1" d="M326.09,74.85a2.63,2.63,0,0,1-2-.81,2.74,2.74,0,0,1-.79-2V53a2.75,2.75,0,0,1,.79-2,2.63,2.63,0,0,1,2-.81,2.67,2.67,0,0,1,2,.81,2.78,2.78,0,0,1,.78,2V57.3l-.32-3.09a7.18,7.18,0,0,1,1.32-2,7.71,7.71,0,0,1,1.82-1.44,8.31,8.31,0,0,1,2.17-.85,9.6,9.6,0,0,1,2.31-.28,3.5,3.5,0,0,1,2.33.79,2.34,2.34,0,0,1,.95,1.84,2.73,2.73,0,0,1-.79,2.2,2.55,2.55,0,0,1-1.71.67,3.77,3.77,0,0,1-1.59-.33,4.06,4.06,0,0,0-3.32.07,4.62,4.62,0,0,0-1.57,1.23,6.35,6.35,0,0,0-1.16,2.05,8.65,8.65,0,0,0-.44,2.89V72a2.77,2.77,0,0,1-.78,2A2.67,2.67,0,0,1,326.09,74.85Z"/>
          <path class="cls-1" d="M354,75.31a13.53,13.53,0,0,1-6.82-1.64,11.35,11.35,0,0,1-4.43-4.45,13.07,13.07,0,0,1-1.55-6.38,14,14,0,0,1,1.69-7.09,11.92,11.92,0,0,1,4.41-4.5,11.46,11.46,0,0,1,5.77-1.57,10.62,10.62,0,0,1,4.46,1,12.2,12.2,0,0,1,3.72,2.66,12.94,12.94,0,0,1,2.56,3.9,11.9,11.9,0,0,1,.94,4.71,2.37,2.37,0,0,1-.87,1.8,3,3,0,0,1-1.94.69H344.29L342.9,59.8h17l-1,.92V59.47a4.2,4.2,0,0,0-.94-2.4,6.07,6.07,0,0,0-2.13-1.68,6,6,0,0,0-2.7-.63,8.94,8.94,0,0,0-2.58.37,4.87,4.87,0,0,0-2.08,1.25A6,6,0,0,0,347,58.73a11.68,11.68,0,0,0-.51,3.74,8.09,8.09,0,0,0,1,4.23,7.11,7.11,0,0,0,6.17,3.53,10.92,10.92,0,0,0,2.72-.27,6.24,6.24,0,0,0,1.64-.67c.42-.27.79-.49,1.13-.67a3.52,3.52,0,0,1,1.57-.42,2.26,2.26,0,0,1,1.69.69,2.29,2.29,0,0,1,.67,1.62,2.87,2.87,0,0,1-1.29,2.26,10.83,10.83,0,0,1-3.38,1.78A13.33,13.33,0,0,1,354,75.31Z"/>
        </g>
      </g>
    </g>
  </g>
</svg>
